<?xml version="1.0" standalone="no"?>
<!DOCTYPE svg PUBLIC "-//W3C//DTD SVG 20010904//EN"
 "http://www.w3.org/TR/2001/REC-SVG-20010904/DTD/svg10.dtd">
<svg version="1.0" xmlns="http://www.w3.org/2000/svg"
 width="2500.000000pt" height="2500.000000pt" viewBox="0 0 2500.000000 2500.000000"
 preserveAspectRatio="xMidYMid meet">
<metadata>
Created by potrace 1.14, written by Peter Selinger 2001-2017
</metadata>
<g transform="translate(0.000000,2500.000000) scale(0.100000,-0.100000)"
fill="#000000" stroke="none">
<path d="M12218 19645 c-2 -2 -59 -6 -128 -10 -69 -3 -136 -8 -150 -10 -14 -2
-56 -6 -95 -10 -38 -3 -86 -8 -105 -10 -80 -10 -207 -26 -230 -30 -14 -2 -43
-6 -65 -10 -23 -3 -52 -8 -65 -10 -14 -3 -52 -10 -85 -15 -79 -13 -106 -18
-190 -36 -38 -9 -81 -18 -95 -20 -14 -3 -50 -11 -80 -19 -30 -8 -66 -16 -80
-19 -128 -23 -550 -153 -795 -244 -197 -73 -230 -86 -233 -94 -2 -4 -9 -8 -17
-8 -18 0 -170 -67 -374 -166 l-173 -84 -1063 0 -1062 0 -29 -22 c-16 -13 -40
-33 -54 -44 -14 -12 -47 -41 -75 -64 -171 -145 -569 -533 -690 -674 -33 -38
-69 -79 -80 -92 -56 -62 -84 -94 -120 -139 -21 -28 -42 -52 -45 -55 -28 -25
-294 -384 -375 -505 -22 -33 -42 -62 -45 -65 -9 -7 -215 -340 -240 -386 -12
-21 -31 -55 -42 -74 -19 -32 -43 -75 -106 -190 -31 -57 -130 -254 -192 -386
-114 -237 -282 -657 -379 -944 -55 -161 -140 -434 -157 -499 -2 -9 -15 -56
-29 -106 -23 -81 -111 -430 -121 -480 -4 -19 -10 -48 -19 -90 -10 -48 -47
-232 -50 -255 -2 -14 -13 -74 -24 -135 -11 -60 -22 -123 -25 -140 -10 -60 -44
-312 -51 -375 -4 -36 -8 -76 -10 -90 -3 -14 -7 -56 -10 -95 -3 -38 -8 -81 -10
-95 -2 -14 -7 -68 -10 -120 -4 -52 -8 -111 -10 -130 -26 -311 -26 -1073 0
-1455 10 -146 22 -291 29 -360 3 -27 8 -75 11 -105 3 -30 8 -77 11 -105 3 -27
7 -61 9 -75 4 -35 16 -130 20 -160 5 -37 16 -111 21 -142 9 -61 13 -86 24
-158 6 -41 15 -95 20 -120 5 -25 12 -61 14 -81 3 -20 8 -42 10 -50 3 -8 7 -30
10 -49 6 -35 11 -61 21 -110 3 -14 7 -34 9 -45 13 -65 39 -187 57 -262 11 -49
22 -95 24 -103 2 -8 13 -53 25 -100 12 -47 23 -93 25 -102 4 -19 39 -147 60
-223 8 -27 26 -88 39 -135 13 -47 34 -115 46 -152 12 -37 22 -71 22 -75 1 -11
130 -390 166 -488 54 -148 104 -280 117 -310 8 -16 32 -75 55 -130 23 -55 51
-119 61 -142 10 -24 28 -64 40 -90 42 -97 210 -432 277 -553 116 -212 217
-380 348 -579 16 -24 34 -51 39 -60 16 -24 118 -169 177 -249 53 -73 252 -327
272 -348 6 -6 27 -31 48 -55 106 -128 221 -253 389 -421 l156 -158 2541 0
2542 0 0 266 0 266 65 -6 c196 -17 321 -21 615 -21 282 0 484 7 610 20 19 2
62 6 95 10 95 9 166 17 265 30 175 21 656 116 815 160 11 4 30 8 42 11 69 14
436 126 538 164 28 10 102 38 165 61 114 42 474 193 512 215 3 2 7 -247 7
-553 0 -307 0 -573 0 -591 l1 -32 1358 2 1357 3 1 1708 2 1709 48 69 c147 210
174 250 174 258 0 5 4 11 8 13 9 3 123 186 204 328 187 325 365 704 490 1040
12 30 27 69 33 85 7 17 16 41 20 55 3 14 10 34 15 45 19 47 103 315 126 402
88 344 145 597 168 758 4 23 8 50 10 60 2 11 7 47 12 80 4 33 8 62 9 65 1 3 5
37 9 75 4 39 9 81 11 95 2 14 7 57 10 95 4 39 8 86 10 105 27 241 27 932 0
1205 -2 22 -7 69 -10 105 -3 36 -8 79 -10 95 -2 17 -9 73 -16 125 -6 52 -12
102 -14 110 -1 8 -6 40 -11 70 -4 30 -8 57 -9 60 -1 3 -5 28 -10 55 -4 28 -9
59 -12 70 -2 11 -11 56 -19 100 -80 412 -214 861 -382 1280 -147 369 -375 812
-593 1153 l-78 122 1414 0 1414 0 0 1200 0 1200 -2750 0 -2750 0 -67 34 c-153
78 -351 169 -497 227 -55 22 -113 46 -130 54 -40 19 -318 116 -430 150 -49 15
-101 32 -115 37 -14 6 -56 19 -95 29 -75 19 -350 88 -375 94 -40 9 -159 34
-180 38 -14 3 -63 12 -110 21 -47 8 -98 17 -115 20 -74 12 -164 26 -210 31
-27 4 -60 8 -73 10 -13 2 -53 7 -90 10 -37 4 -78 8 -91 10 -13 2 -65 7 -115
10 -50 4 -109 9 -131 12 -46 5 -792 13 -797 8z"/>
</g>
</svg>
